<svg xmlns="http://www.w3.org/2000/svg" width="350" height="48" viewBox="0 0 350 48"><style>.battery{width:16px;height:16px}text{font:600 12px system-ui;fill:currentColor}</style><rect width="350" height="48" fill="#f7f8fa"/><g color="#626971"><g transform="translate(10,16)"><svg class="battery" viewBox="0 0 24 24" width="24" height="24" fill="none" stroke="currentColor" stroke-width="1.75" aria-hidden="true" focusable="false" data-quota-battery=""><rect x="2" y="6" width="18" height="12" rx="2"></rect><path d="M22 10v4" stroke-linecap="round"></path><rect data-battery-fill="0" x="4.5" y="8.5" width="0" height="7" rx=".75" fill="currentColor" stroke="none"></rect></svg><text x="22" y="12">0%</text></g><g transform="translate(80,16)"><svg class="battery" viewBox="0 0 24 24" width="24" height="24" fill="none" stroke="currentColor" stroke-width="1.75" aria-hidden="true" focusable="false" data-quota-battery=""><rect x="2" y="6" width="18" height="12" rx="2"></rect><path d="M22 10v4" stroke-linecap="round"></path><rect data-battery-fill="15" x="4.5" y="8.5" width="1.95" height="7" rx=".75" fill="currentColor" stroke="none"></rect></svg><text x="22" y="12">15%</text></g><g transform="translate(150,16)"><svg class="battery" viewBox="0 0 24 24" width="24" height="24" fill="none" stroke="currentColor" stroke-width="1.75" aria-hidden="true" focusable="false" data-quota-battery=""><rect x="2" y="6" width="18" height="12" rx="2"></rect><path d="M22 10v4" stroke-linecap="round"></path><rect data-battery-fill="50" x="4.5" y="8.5" width="6.5" height="7" rx=".75" fill="currentColor" stroke="none"></rect></svg><text x="22" y="12">50%</text></g><g transform="translate(220,16)"><svg class="battery" viewBox="0 0 24 24" width="24" height="24" fill="none" stroke="currentColor" stroke-width="1.75" aria-hidden="true" focusable="false" data-quota-battery=""><rect x="2" y="6" width="18" height="12" rx="2"></rect><path d="M22 10v4" stroke-linecap="round"></path><rect data-battery-fill="100" x="4.5" y="8.5" width="13" height="7" rx=".75" fill="currentColor" stroke="none"></rect></svg><text x="22" y="12">100%</text></g><g transform="translate(290,16)"><svg class="battery" viewBox="0 0 24 24" width="24" height="24" fill="none" stroke="currentColor" stroke-width="1.75" aria-hidden="true" focusable="false" data-quota-battery=""><rect x="2" y="6" width="18" height="12" rx="2"></rect><path d="M22 10v4" stroke-linecap="round"></path></svg><text x="22" y="12">—</text></g></g></svg>
